REM MD5 ec048cd3f91fc2d3097caa4d9d2793df
FILE "Demo Codemasters (France) (SLED-02246).bin" BINARY
  TRACK 01 MODE2/2352
    INDEX 01 00:00:00
  TRACK 02 AUDIO
    INDEX 00 23:50:65
    INDEX 01 23:52:65
  TRACK 03 AUDIO
    INDEX 00 28:51:16
    INDEX 01 28:53:16
  TRACK 04 AUDIO
    INDEX 00 29:03:16
    INDEX 01 29:05:16
REM LEADOUT 34:19:14
